{
  "source": "C:\\Users\\Peter\\Desktop\\stuff\\MIUN\\quantitative_research\\video_compression\\videos\\BVI-HD\\BVI-HD_CDVL_videos\\ORIG\\Typing_1920x1080_60fps.mp4",
  "output": "C:\\Users\\Peter\\Desktop\\stuff\\MIUN\\quantitative_research\\video_compression\\compressed_videos\\BVI-HD\\hevc\\2.5\\Typing_1920x1080_60fps_hevc.mp4",
  "codec": "hevc",
  "ok": "Input #0, mov,mp4,m4a,3gp,3g2,mj2, from 'C:\\Users\\Peter\\Desktop\\stuff\\MIUN\\quantitative_research\\video_compression\\videos\\BVI-HD\\BVI-HD_CDVL_videos\\ORIG\\Typing_1920x1080_60fps.mp4':\n  Metadata:\n    major_brand     : isom\n    minor_version   : 512\n    compatible_brands: isomiso2avc1mp41\n    encoder         : Lavf54.28.101\n  Duration: 00:00:05.00, start: 0.000000, bitrate: 203453 kb/s\n  Stream #0:0[0x1](und): Video: h264 (High 4:4:4 Predictive) (avc1 / 0x31637661), yuv420p(progressive), 1920x1080, 203448 kb/s, 60 fps, 60 tbr, 60 tbn (default)\n    Metadata:\n      handler_name    : VideoHandler\n      vendor_id       : [0][0][0][0]\n[out#0/mp4 @ 00000272a958aa40] Codec AVOption b:a (set bitrate (in bits/s)) has not been used for any stream. The most likely reason is either wrong type (e.g. a video option with no video streams) or that it is a private option of some decoder which was not actually used for any stream.\nStream mapping:\n  Stream #0:0 -> #0:0 (h264 (native) -> hevc (libx265))\nPress [q] to stop, [?] for help\n[libx265 @ 00000272a9b65700] Unknown option: \"aq-mode.\nx265 [info]: HEVC encoder version 4.1+190-8f11c33ac\nx265 [info]: build info [Windows][GCC 15.1.0][64 bit] 10bit\nx265 [info]: using cpu capabilities: MMX2 SSE2Fast LZCNT SSSE3 SSE4.2 AVX FMA3 BMI2 AVX2\nx265 [info]: Main 10 profile, Level-4.1 (Main tier)\nx265 [info]: Thread pool created using 12 threads\nx265 [info]: Slices                              : 1\nx265 [info]: frame threads / pool features       : 3 / wpp(17 rows)\nx265 [info]: Coding QT: max CU size, min CU size : 64 / 8\nx265 [info]: Residual QT: max TU size, max depth : 32 / 1 inter / 1 intra\nx265 [info]: ME / range / subpel / merge         : star / 57 / 3 / 3\nx265 [info]: Keyframe min / max / scenecut / bias  : 25 / 250 / 40 / 5.00 \nx265 [info]: Lookahead / bframes / badapt        : 25 / 4 / 2\nx265 [info]: b-pyramid / weightp / weightb       : 1 / 1 / 0\nx265 [info]: References / ref-limit  cu / depth  : 4 / on / on\nx265 [info]: AQ: mode / str / qg-size / cu-tree  : 2 / 1.0 / 32 / 1\nx265 [info]: Rate Control / qCompress            : ABR-2500 kbps / 0.60\nx265 [info]: VBV/HRD buffer / max-rate / init    : 2500 / 2500 / 0.750\nx265 [info]: tools: rect limit-modes rd=4 psy-rd=2.00 rdoq=2 psy-rdoq=1.00\nx265 [info]: tools: rskip mode=1 signhide tmvp strong-intra-smoothing lslices=4\nx265 [info]: tools: deblock sao dhdr10-info\nOutput #0, mp4, to 'C:\\Users\\Peter\\Desktop\\stuff\\MIUN\\quantitative_research\\video_compression\\compressed_videos\\BVI-HD\\hevc\\2.5\\Typing_1920x1080_60fps_hevc.mp4':\n  Metadata:\n    major_brand     : isom\n    minor_version   : 512\n    compatible_brands: isomiso2avc1mp41\n    encoder         : Lavf62.3.100\n  Stream #0:0(und): Video: hevc (hev1 / 0x31766568), yuv420p10le(tv, progressive), 1920x1080, q=2-31, 2500 kb/s, 60 fps, 15360 tbn (default)\n    Metadata:\n      encoder         : Lavc62.11.100 libx265\n      handler_name    : VideoHandler\n      vendor_id       : [0][0][0][0]\n    Side data:\n      cpb: bitrate max/min/avg: 2500000/0/2500000 buffer size: 2500000 vbv_delay: N/A\nframe=    0 fps=0.0 q=0.0 size=       0KiB time=N/A bitrate=N/A speed=N/A elapsed=0:00:00.52    \nframe=    0 fps=0.0 q=0.0 size=       0KiB time=N/A bitrate=N/A speed=N/A elapsed=0:00:01.04    \nframe=    0 fps=0.0 q=0.0 size=       0KiB time=N/A bitrate=N/A speed=N/A elapsed=0:00:01.56    \nframe=    0 fps=0.0 q=0.0 size=       0KiB time=N/A bitrate=N/A speed=N/A elapsed=0:00:02.08    \nframe=    0 fps=0.0 q=0.0 size=       0KiB time=N/A bitrate=N/A speed=N/A elapsed=0:00:02.61    \nframe=    0 fps=0.0 q=0.0 size=       0KiB time=N/A bitrate=N/A speed=N/A elapsed=0:00:03.14    \nframe=    0 fps=0.0 q=0.0 size=       0KiB time=N/A bitrate=N/A speed=N/A elapsed=0:00:03.65    \nframe=    0 fps=0.0 q=0.0 size=       0KiB time=N/A bitrate=N/A speed=N/A elapsed=0:00:04.17    \nframe=    0 fps=0.0 q=0.0 size=       0KiB time=N/A bitrate=N/A speed=N/A elapsed=0:00:04.69    \nframe=    1 fps=0.2 q=35.2 size=       0KiB time=-00:00:00.01 bitrate=N/A speed=N/A elapsed=0:00:05.20    \nframe=    1 fps=0.2 q=35.2 size=       0KiB time=-00:00:00.01 bitrate=N/A speed=N/A elapsed=0:00:05.73    \nframe=    2 fps=0.3 q=41.5 size=       0KiB time=00:00:00.00 bitrate=N/A speed=   0x elapsed=0:00:06.24    \nframe=    2 fps=0.3 q=41.5 size=       0KiB time=00:00:00.00 bitrate=N/A speed=   0x elapsed=0:00:06.77    \nframe=    3 fps=0.4 q=43.3 size=       0KiB time=00:00:00.01 bitrate=  21.1kbits/s speed=0.00228x elapsed=0:00:07.29    \nframe=    4 fps=0.5 q=43.4 size=       0KiB time=00:00:00.03 bitrate=  10.6kbits/s speed=0.00426x elapsed=0:00:07.82    \nframe=    4 fps=0.5 q=43.4 size=       0KiB time=00:00:00.03 bitrate=  10.6kbits/s speed=0.00399x elapsed=0:00:08.34    \nframe=    5 fps=0.6 q=40.4 size=       0KiB time=00:00:00.05 bitrate=   7.0kbits/s speed=0.00564x elapsed=0:00:08.85    \nframe=    5 fps=0.5 q=40.4 size=       0KiB time=00:00:00.05 bitrate=   7.0kbits/s speed=0.00533x elapsed=0:00:09.38    \nframe=    6 fps=0.6 q=39.4 size=       0KiB time=00:00:00.06 bitrate=   5.3kbits/s speed=0.00672x elapsed=0:00:09.91    \nframe=    7 fps=0.7 q=32.7 size=       0KiB time=00:00:00.08 bitrate=   4.2kbits/s speed=0.00799x elapsed=0:00:10.42    \nframe=    7 fps=0.6 q=32.7 size=       0KiB time=00:00:00.08 bitrate=   4.2kbits/s speed=0.0076x elapsed=0:00:10.96    \nframe=    8 fps=0.7 q=34.8 size=       0KiB time=00:00:00.10 bitrate=   3.5kbits/s speed=0.00872x elapsed=0:00:11.46    \nframe=    9 fps=0.8 q=35.4 size=       0KiB time=00:00:00.11 bitrate=   3.0kbits/s speed=0.00973x elapsed=0:00:11.99    \nframe=    9 fps=0.7 q=35.4 size=       0KiB time=00:00:00.11 bitrate=   3.0kbits/s speed=0.00931x elapsed=0:00:12.52    \nframe=   10 fps=0.8 q=37.1 size=       0KiB time=00:00:00.13 bitrate=   2.6kbits/s speed=0.0102x elapsed=0:00:13.03    \nframe=   11 fps=0.8 q=31.6 size=       0KiB time=00:00:00.15 bitrate=   2.3kbits/s speed=0.0111x elapsed=0:00:13.55    \nframe=   11 fps=0.8 q=31.6 size=       0KiB time=00:00:00.15 bitrate=   2.3kbits/s speed=0.0106x elapsed=0:00:14.10    \nframe=   12 fps=0.8 q=36.8 size=       0KiB time=00:00:00.16 bitrate=   2.1kbits/s speed=0.0114x elapsed=0:00:14.64    \nframe=   12 fps=0.8 q=36.8 size=       0KiB time=00:00:00.16 bitrate=   2.1kbits/s speed=0.011x elapsed=0:00:15.17    \nframe=   12 fps=0.8 q=36.8 size=       0KiB time=00:00:00.16 bitrate=   2.1kbits/s speed=0.0106x elapsed=0:00:15.69    \nframe=   12 fps=0.7 q=36.8 size=       0KiB time=00:00:00.16 bitrate=   2.1kbits/s speed=0.0103x elapsed=0:00:16.22    \nframe=   12 fps=0.7 q=36.8 size=       0KiB time=00:00:00.16 bitrate=   2.1kbits/s speed=0.00994x elapsed=0:00:16.77    \nframe=   13 fps=0.8 q=36.5 size=       0KiB time=00:00:00.18 bitrate=   1.9kbits/s speed=0.0106x elapsed=0:00:17.31    \nframe=   13 fps=0.7 q=36.5 size=       0KiB time=00:00:00.18 bitrate=   1.9kbits/s speed=0.0103x elapsed=0:00:17.83    \nframe=   13 fps=0.7 q=36.5 size=       0KiB time=00:00:00.18 bitrate=   1.9kbits/s speed=0.00999x elapsed=0:00:18.35    \nframe=   14 fps=0.7 q=36.4 size=       0KiB time=00:00:00.20 bitrate=   1.8kbits/s speed=0.0106x elapsed=0:00:18.89    \nframe=   14 fps=0.7 q=36.4 size=       0KiB time=00:00:00.20 bitrate=   1.8kbits/s speed=0.0103x elapsed=0:00:19.43    \nframe=   14 fps=0.7 q=36.4 size=       0KiB time=00:00:00.20 bitrate=   1.8kbits/s speed=0.01x elapsed=0:00:19.95    \nframe=   14 fps=0.7 q=36.4 size=       0KiB time=00:00:00.20 bitrate=   1.8kbits/s speed=0.00977x elapsed=0:00:20.47    \nframe=   15 fps=0.7 q=30.3 size=       0KiB time=00:00:00.21 bitrate=   1.6kbits/s speed=0.0103x elapsed=0:00:20.99    \nframe=   15 fps=0.7 q=30.3 size=       0KiB time=00:00:00.21 bitrate=   1.6kbits/s speed=0.0101x elapsed=0:00:21.54    \nframe=   16 fps=0.7 q=34.8 size=       0KiB time=00:00:00.23 bitrate=   1.5kbits/s speed=0.0106x elapsed=0:00:22.07    \nframe=   16 fps=0.7 q=34.8 size=       0KiB time=00:00:00.23 bitrate=   1.5kbits/s speed=0.0103x elapsed=0:00:22.60    \nframe=   16 fps=0.7 q=34.8 size=       0KiB time=00:00:00.23 bitrate=   1.5kbits/s speed=0.0101x elapsed=0:00:23.13    \nframe=   16 fps=0.7 q=34.8 size=       0KiB time=00:00:00.23 bitrate=   1.5kbits/s speed=0.00986x elapsed=0:00:23.66    \nframe=   17 fps=0.7 q=35.2 size=       0KiB time=00:00:00.25 bitrate=   1.4kbits/s speed=0.0103x elapsed=0:00:24.17    \nframe=   18 fps=0.7 q=35.1 size=       0KiB time=00:00:00.26 bitrate=   1.3kbits/s speed=0.0108x elapsed=0:00:24.70    \nframe=   19 fps=0.8 q=29.3 size=       0KiB time=00:00:00.28 bitrate=   1.2kbits/s speed=0.0112x elapsed=0:00:25.23    \nframe=   19 fps=0.7 q=29.3 size=       0KiB time=00:00:00.28 bitrate=   1.2kbits/s speed=0.011x elapsed=0:00:25.75    \nframe=   19 fps=0.7 q=29.3 size=       0KiB time=00:00:00.28 bitrate=   1.2kbits/s speed=0.0108x elapsed=0:00:26.28    \nframe=   19 fps=0.7 q=29.3 size=       0KiB time=00:00:00.28 bitrate=   1.2kbits/s speed=0.0106x elapsed=0:00:26.81    \nframe=   20 fps=0.7 q=34.7 size=       0KiB time=00:00:00.30 bitrate=   1.2kbits/s speed=0.011x elapsed=0:00:27.35    \nframe=   20 fps=0.7 q=34.7 size=       0KiB time=00:00:00.30 bitrate=   1.2kbits/s speed=0.0108x elapsed=0:00:27.87    \nframe=   20 fps=0.7 q=34.7 size=       0KiB time=00:00:00.30 bitrate=   1.2kbits/s speed=0.0106x elapsed=0:00:28.40    \nframe=   21 fps=0.7 q=35.3 size=       0KiB time=00:00:00.31 bitrate=   1.1kbits/s speed=0.0109x elapsed=0:00:28.92    \nframe=   21 fps=0.7 q=35.3 size=       0KiB time=00:00:00.31 bitrate=   1.1kbits/s speed=0.0108x elapsed=0:00:29.44    \nframe=   21 fps=0.7 q=35.3 size=       0KiB time=00:00:00.31 bitrate=   1.1kbits/s speed=0.0106x elapsed=0:00:29.97    \nframe=   22 fps=0.7 q=36.1 size=       0KiB time=00:00:00.33 bitrate=   1.1kbits/s speed=0.0109x elapsed=0:00:30.49    \nframe=   22 fps=0.7 q=36.1 size=       0KiB time=00:00:00.33 bitrate=   1.1kbits/s speed=0.0107x elapsed=0:00:31.02    \nframe=   23 fps=0.7 q=28.0 size=       0KiB time=00:00:00.35 bitrate=   1.0kbits/s speed=0.0111x elapsed=0:00:31.55    \nframe=   23 fps=0.7 q=28.0 size=       0KiB time=00:00:00.35 bitrate=   1.0kbits/s speed=0.0109x elapsed=0:00:32.06    \nframe=   24 fps=0.7 q=34.5 size=       0KiB time=00:00:00.36 bitrate=   1.0kbits/s speed=0.0113x elapsed=0:00:32.58    \nframe=   24 fps=0.7 q=34.5 size=       0KiB time=00:00:00.36 bitrate=   1.0kbits/s speed=0.0111x elapsed=0:00:33.12    \nframe=   24 fps=0.7 q=34.5 size=       0KiB time=00:00:00.36 bitrate=   1.0kbits/s speed=0.0109x elapsed=0:00:33.70    \nframe=   24 fps=0.7 q=34.5 size=       0KiB time=00:00:00.36 bitrate=   1.0kbits/s speed=0.0107x elapsed=0:00:34.27    \nframe=   24 fps=0.7 q=34.5 size=       0KiB time=00:00:00.36 bitrate=   1.0kbits/s speed=0.0105x elapsed=0:00:34.81    \nframe=   24 fps=0.7 q=34.5 size=       0KiB time=00:00:00.36 bitrate=   1.0kbits/s speed=0.0104x elapsed=0:00:35.38    \nframe=   24 fps=0.7 q=34.5 size=       0KiB time=00:00:00.36 bitrate=   1.0kbits/s speed=0.0102x elapsed=0:00:35.91    \nframe=   24 fps=0.7 q=34.5 size=       0KiB time=00:00:00.36 bitrate=   1.0kbits/s speed=0.0101x elapsed=0:00:36.42    \nframe=   25 fps=0.7 q=34.4 size=       0KiB time=00:00:00.38 bitrate=   0.9kbits/s speed=0.0104x elapsed=0:00:36.99    \nframe=   25 fps=0.7 q=34.4 size=       0KiB time=00:00:00.38 bitrate=   0.9kbits/s speed=0.0102x elapsed=0:00:37.52    \nframe=   25 fps=0.7 q=34.4 size=       0KiB time=00:00:00.38 bitrate=   0.9kbits/s speed=0.0101x elapsed=0:00:38.05    \nframe=   25 fps=0.6 q=34.4 size=       0KiB time=00:00:00.38 bitrate=   0.9kbits/s speed=0.00993x elapsed=0:00:38.61    \nframe=   25 fps=0.6 q=34.4 size=       0KiB time=00:00:00.38 bitrate=   0.9kbits/s speed=0.0098x elapsed=0:00:39.13    \nframe=   25 fps=0.6 q=34.4 size=       0KiB time=00:00:00.38 bitrate=   0.9kbits/s speed=0.00966x elapsed=0:00:39.67    \nframe=   26 fps=0.6 q=34.3 size=       0KiB time=00:00:00.40 bitrate=   0.9kbits/s speed=0.00993x elapsed=0:00:40.26    \nframe=   26 fps=0.6 q=34.3 size=       0KiB time=00:00:00.40 bitrate=   0.9kbits/s speed=0.0098x elapsed=0:00:40.80    \nframe=   26 fps=0.6 q=34.3 size=       0KiB time=00:00:00.40 bitrate=   0.9kbits/s speed=0.00968x elapsed=0:00:41.32    \nframe=   27 fps=0.6 q=34.4 size=       0KiB time=00:00:00.41 bitrate=   0.8kbits/s speed=0.00996x elapsed=0:00:41.85    \nframe=   27 fps=0.6 q=34.4 size=       0KiB time=00:00:00.41 bitrate=   0.8kbits/s speed=0.00983x elapsed=0:00:42.37    \nframe=   27 fps=0.6 q=34.4 size=       0KiB time=00:00:00.41 bitrate=   0.8kbits/s speed=0.00971x elapsed=0:00:42.90    \nframe=   28 fps=0.6 q=26.9 size=       0KiB time=00:00:00.43 bitrate=   0.8kbits/s speed=0.00998x elapsed=0:00:43.43    \nframe=   28 fps=0.6 q=26.9 size=       0KiB time=00:00:00.43 bitrate=   0.8kbits/s speed=0.00985x elapsed=0:00:43.97    \nframe=   28 fps=0.6 q=26.9 size=       0KiB time=00:00:00.43 bitrate=   0.8kbits/s speed=0.00973x elapsed=0:00:44.55    \nframe=   28 fps=0.6 q=26.9 size=       0KiB time=00:00:00.43 bitrate=   0.8kbits/s speed=0.00959x elapsed=0:00:45.16    \nframe=   28 fps=0.6 q=26.9 size=       0KiB time=00:00:00.43 bitrate=   0.8kbits/s speed=0.00947x elapsed=0:00:45.76    \nframe=   28 fps=0.6 q=26.9 size=       0KiB time=00:00:00.43 bitrate=   0.8kbits/s speed=0.00936x elapsed=0:00:46.27    \nframe=   28 fps=0.6 q=26.9 size=       0KiB time=00:00:00.43 bitrate=   0.8kbits/s speed=0.00925x elapsed=0:00:46.84    \nframe=   28 fps=0.6 q=26.9 size=       0KiB time=00:00:00.43 bitrate=   0.8kbits/s speed=0.00914x elapsed=0:00:47.41    \nframe=   28 fps=0.6 q=26.9 size=       0KiB time=00:00:00.43 bitrate=   0.8kbits/s speed=0.00902x elapsed=0:00:48.02    \nframe=   28 fps=0.6 q=26.9 size=       0KiB time=00:00:00.43 bitrate=   0.8kbits/s speed=0.00891x elapsed=0:00:48.63    \nframe=   28 fps=0.6 q=26.9 size=       0KiB time=00:00:00.43 bitrate=   0.8kbits/s speed=0.00881x elapsed=0:00:49.16    \nframe=   29 fps=0.6 q=34.1 size=       0KiB time=00:00:00.45 bitrate=   0.8kbits/s speed=0.00905x elapsed=0:00:49.70    \nframe=   29 fps=0.6 q=34.1 size=       0KiB time=00:00:00.45 bitrate=   0.8kbits/s speed=0.00896x elapsed=0:00:50.24    \nframe=   29 fps=0.6 q=34.1 size=       0KiB time=00:00:00.45 bitrate=   0.8kbits/s speed=0.00886x elapsed=0:00:50.77    \nframe=   29 fps=0.6 q=34.1 size=       0KiB time=00:00:00.45 bitrate=   0.8kbits/s speed=0.00877x elapsed=0:00:51.29    \nframe=   30 fps=0.6 q=35.1 size=       0KiB time=00:00:00.46 bitrate=   0.8kbits/s speed=0.00901x elapsed=0:00:51.81    \nframe=   30 fps=0.6 q=35.1 size=       0KiB time=00:00:00.46 bitrate=   0.8kbits/s speed=0.00892x elapsed=0:00:52.34    \nframe=   30 fps=0.6 q=35.1 size=       0KiB time=00:00:00.46 bitrate=   0.8kbits/s speed=0.00883x elapsed=0:00:52.86    \nframe=   31 fps=0.6 q=34.2 size=       0KiB time=00:00:00.48 bitrate=   0.7kbits/s speed=0.00905x elapsed=0:00:53.38    \nframe=   31 fps=0.6 q=34.2 size=       0KiB time=00:00:00.48 bitrate=   0.7kbits/s speed=0.00896x elapsed=0:00:53.91    \nframe=   31 fps=0.6 q=34.2 size=       0KiB time=00:00:00.48 bitrate=   0.7kbits/s speed=0.00888x elapsed=0:00:54.44    \nframe=   33 fps=0.6 q=26.5 size=       0KiB time=00:00:00.51 bitrate=   0.7kbits/s speed=0.0094x elapsed=0:00:54.97    \nframe=   33 fps=0.6 q=26.5 size=       0KiB time=00:00:00.51 bitrate=   0.7kbits/s speed=0.00931x elapsed=0:00:55.49    \nframe=   33 fps=0.6 q=26.5 size=       0KiB time=00:00:00.51 bitrate=   0.7kbits/s speed=0.00922x elapsed=0:00:56.00    \nframe=   35 fps=0.6 q=34.2 size=       0KiB time=00:00:00.53 bitrate=   0.7kbits/s speed=0.00943x elapsed=0:00:56.54    \nframe=   35 fps=0.6 q=34.2 size=       0KiB time=00:00:00.55 bitrate=   0.6kbits/s speed=0.00964x elapsed=0:00:57.08    \nframe=   35 fps=0.6 q=34.2 size=       0KiB time=00:00:00.55 bitrate=   0.6kbits/s speed=0.00955x elapsed=0:00:57.60    \nframe=   36 fps=0.6 q=33.2 size=       0KiB time=00:00:00.56 bitrate=   0.6kbits/s speed=0.00975x elapsed=0:00:58.10    \nframe=   36 fps=0.6 q=33.2 size=       0KiB time=00:00:00.56 bitrate=   0.6kbits/s speed=0.00966x elapsed=0:00:58.65    \nframe=   36 fps=0.6 q=33.2 size=       0KiB time=00:00:00.56 bitrate=   0.6kbits/s speed=0.00957x elapsed=0:00:59.24    \nframe=   37 fps=0.6 q=33.3 size=       0KiB time=00:00:00.56 bitrate=   0.6kbits/s speed=0.00948x elapsed=0:00:59.77    \nframe=   37 fps=0.6 q=33.3 size=       0KiB time=00:00:00.58 bitrate=   0.6kbits/s speed=0.00967x elapsed=0:01:00.30    \nframe=   37 fps=0.6 q=33.3 size=       0KiB time=00:00:00.58 bitrate=   0.6kbits/s speed=0.00958x elapsed=0:01:00.89    \nframe=   38 fps=0.6 q=25.4 size=       0KiB time=00:00:00.60 bitrate=   0.6kbits/s speed=0.00977x elapsed=0:01:01.40    \nframe=   38 fps=0.6 q=25.4 size=       0KiB time=00:00:00.60 bitrate=   0.6kbits/s speed=0.00969x elapsed=0:01:01.92    \nframe=   38 fps=0.6 q=25.4 size=       0KiB time=00:00:00.60 bitrate=   0.6kbits/s speed=0.00961x elapsed=0:01:02.45    \nframe=   38 fps=0.6 q=25.4 size=       0KiB time=00:00:00.60 bitrate=   0.6kbits/s speed=0.00952x elapsed=0:01:03.01    \nframe=   39 fps=0.6 q=31.6 size=       0KiB time=00:00:00.61 bitrate=   0.6kbits/s speed=0.00971x elapsed=0:01:03.53    \nframe=   39 fps=0.6 q=31.6 size=       0KiB time=00:00:00.61 bitrate=   0.6kbits/s speed=0.00962x elapsed=0:01:04.07    \nframe=   40 fps=0.6 q=33.2 size=       0KiB time=00:00:00.63 bitrate=   0.6kbits/s speed=0.0098x elapsed=0:01:04.59    \nframe=   40 fps=0.6 q=33.2 size=       0KiB time=00:00:00.63 bitrate=   0.6kbits/s speed=0.00972x elapsed=0:01:05.15    \nframe=   40 fps=0.6 q=33.2 size=       0KiB time=00:00:00.63 bitrate=   0.6kbits/s speed=0.00964x elapsed=0:01:05.71    \nframe=   40 fps=0.6 q=33.2 size=       0KiB time=00:00:00.63 bitrate=   0.6kbits/s speed=0.00956x elapsed=0:01:06.26    \nframe=   41 fps=0.6 q=33.2 size=       0KiB time=00:00:00.63 bitrate=   0.6kbits/s speed=0.00948x elapsed=0:01:06.79    \nframe=   41 fps=0.6 q=33.2 size=       0KiB time=00:00:00.65 bitrate=   0.5kbits/s speed=0.00965x elapsed=0:01:07.34    \nframe=   41 fps=0.6 q=33.2 size=       0KiB time=00:00:00.65 bitrate=   0.5kbits/s speed=0.00958x elapsed=0:01:07.88    \nframe=   42 fps=0.6 q=33.4 size=       0KiB time=00:00:00.66 bitrate=   0.5kbits/s speed=0.00975x elapsed=0:01:08.39    \nframe=   42 fps=0.6 q=33.4 size=       0KiB time=00:00:00.66 bitrate=   0.5kbits/s speed=0.00967x elapsed=0:01:08.93    \nframe=   42 fps=0.6 q=33.4 size=       0KiB time=00:00:00.66 bitrate=   0.5kbits/s speed=0.0096x elapsed=0:01:09.46    \nframe=   43 fps=0.6 q=25.5 size=       0KiB time=00:00:00.68 bitrate=   0.5kbits/s speed=0.00976x elapsed=0:01:09.98    \nframe=   43 fps=0.6 q=25.5 size=       0KiB time=00:00:00.68 bitrate=   0.5kbits/s speed=0.00969x elapsed=0:01:10.55    \nframe=   43 fps=0.6 q=25.5 size=       0KiB time=00:00:00.68 bitrate=   0.5kbits/s speed=0.00961x elapsed=0:01:11.10    \nframe=   43 fps=0.6 q=25.5 size=       0KiB time=00:00:00.68 bitrate=   0.5kbits/s speed=0.00954x elapsed=0:01:11.63    \nframe=   43 fps=0.6 q=25.5 size=       0KiB time=00:00:00.68 bitrate=   0.5kbits/s speed=0.00946x elapsed=0:01:12.20    \nframe=   43 fps=0.6 q=25.5 size=       0KiB time=00:00:00.68 bitrate=   0.5kbits/s speed=0.0094x elapsed=0:01:12.72    \nframe=   44 fps=0.6 q=32.3 size=       0KiB time=00:00:00.70 bitrate=   0.5kbits/s speed=0.00956x elapsed=0:01:13.24    \nframe=   44 fps=0.6 q=32.3 size=       0KiB time=00:00:00.70 bitrate=   0.5kbits/s speed=0.00949x elapsed=0:01:13.79    \nframe=   45 fps=0.6 q=33.4 size=       0KiB time=00:00:00.71 bitrate=   0.5kbits/s speed=0.00964x elapsed=0:01:14.33    \nframe=   45 fps=0.6 q=33.4 size=       0KiB time=00:00:00.71 bitrate=   0.5kbits/s speed=0.00957x elapsed=0:01:14.87    \nframe=   45 fps=0.6 q=33.4 size=       0KiB time=00:00:00.71 bitrate=   0.5kbits/s speed=0.0095x elapsed=0:01:15.40    \nframe=   45 fps=0.6 q=33.4 size=       0KiB time=00:00:00.71 bitrate=   0.5kbits/s speed=0.00944x elapsed=0:01:15.93    \nframe=   46 fps=0.6 q=32.3 size=       0KiB time=00:00:00.73 bitrate=   0.5kbits/s speed=0.00959x elapsed=0:01:16.45    \nframe=   46 fps=0.6 q=32.3 size=       0KiB time=00:00:00.73 bitrate=   0.5kbits/s speed=0.00953x elapsed=0:01:16.96    \nframe=   46 fps=0.6 q=32.3 size=       0KiB time=00:00:00.73 bitrate=   0.5kbits/s speed=0.00946x elapsed=0:01:17.49    \nframe=   47 fps=0.6 q=32.2 size=       0KiB time=00:00:00.75 bitrate=   0.5kbits/s speed=0.00961x elapsed=0:01:18.05    \nframe=   47 fps=0.6 q=32.2 size=       0KiB time=00:00:00.75 bitrate=   0.5kbits/s speed=0.00954x elapsed=0:01:18.60    \nframe=   47 fps=0.6 q=32.2 size=       0KiB time=00:00:00.75 bitrate=   0.5kbits/s speed=0.00948x elapsed=0:01:19.13    \nframe=   48 fps=0.6 q=25.0 size=       0KiB time=00:00:00.76 bitrate=   0.5kbits/s speed=0.00962x elapsed=0:01:19.71    \nframe=   48 fps=0.6 q=25.0 size=       0KiB time=00:00:00.76 bitrate=   0.5kbits/s speed=0.00955x elapsed=0:01:20.26    \nframe=   48 fps=0.6 q=25.0 size=       0KiB time=00:00:00.76 bitrate=   0.5kbits/s speed=0.00949x elapsed=0:01:20.81    \nframe=   48 fps=0.6 q=25.0 size=       0KiB time=00:00:00.76 bitrate=   0.5kbits/s speed=0.00942x elapsed=0:01:21.34    \nframe=   48 fps=0.6 q=25.0 size=       0KiB time=00:00:00.76 bitrate=   0.5kbits/s speed=0.00936x elapsed=0:01:21.89    \nframe=   50 fps=0.6 q=32.2 size=       0KiB time=00:00:00.80 bitrate=   0.4kbits/s speed=0.0097x elapsed=0:01:22.44    \nframe=   50 fps=0.6 q=32.2 size=       0KiB time=00:00:00.80 bitrate=   0.4kbits/s speed=0.00964x elapsed=0:01:22.99    \nframe=   50 fps=0.6 q=32.2 size=       0KiB time=00:00:00.80 bitrate=   0.4kbits/s speed=0.00957x elapsed=0:01:23.55    \nframe=   50 fps=0.6 q=32.2 size=       0KiB time=00:00:00.80 bitrate=   0.4kbits/s speed=0.00951x elapsed=0:01:24.11    \nframe=   50 fps=0.6 q=32.2 size=       0KiB time=00:00:00.80 bitrate=   0.4kbits/s speed=0.00945x elapsed=0:01:24.65    \nframe=   50 fps=0.6 q=32.2 size=       0KiB time=00:00:00.80 bitrate=   0.4kbits/s speed=0.00939x elapsed=0:01:25.20    \nframe=   50 fps=0.6 q=32.2 size=       0KiB time=00:00:00.80 bitrate=   0.4kbits/s speed=0.00933x elapsed=0:01:25.74    \nframe=   51 fps=0.6 q=31.3 size=       0KiB time=00:00:00.81 bitrate=   0.4kbits/s speed=0.00946x elapsed=0:01:26.28    \nframe=   51 fps=0.6 q=31.3 size=       0KiB time=00:00:00.81 bitrate=   0.4kbits/s speed=0.00941x elapsed=0:01:26.80    \nframe=   52 fps=0.6 q=31.3 size=       0KiB time=00:00:00.83 bitrate=   0.4kbits/s speed=0.00954x elapsed=0:01:27.33    \nframe=   52 fps=0.6 q=31.3 size=       0KiB time=00:00:00.83 bitrate=   0.4kbits/s speed=0.00948x elapsed=0:01:27.87    \nframe=   52 fps=0.6 q=31.3 size=       0KiB time=00:00:00.83 bitrate=   0.4kbits/s speed=0.00943x elapsed=0:01:28.40    \nframe=   53 fps=0.6 q=25.1 size=       0KiB time=00:00:00.85 bitrate=   0.4kbits/s speed=0.00956x elapsed=0:01:28.95    \nframe=   53 fps=0.6 q=25.1 size=       0KiB time=00:00:00.85 bitrate=   0.4kbits/s speed=0.0095x elapsed=0:01:29.48    \nframe=   54 fps=0.6 q=31.3 size=       0KiB time=00:00:00.86 bitrate=   0.4kbits/s speed=0.00963x elapsed=0:01:30.00    \nframe=   54 fps=0.6 q=31.3 size=       0KiB time=00:00:00.86 bitrate=   0.4kbits/s speed=0.00957x elapsed=0:01:30.52    \nframe=   55 fps=0.6 q=32.3 size=       0KiB time=00:00:00.88 bitrate=   0.4kbits/s speed=0.0097x elapsed=0:01:31.05    \nframe=   55 fps=0.6 q=32.3 size=       0KiB time=00:00:00.88 bitrate=   0.4kbits/s speed=0.00964x elapsed=0:01:31.63    \nframe=   55 fps=0.6 q=32.3 size=       0KiB time=00:00:00.88 bitrate=   0.4kbits/s speed=0.00958x elapsed=0:01:32.19    \nframe=   55 fps=0.6 q=32.3 size=       0KiB time=00:00:00.88 bitrate=   0.4kbits/s speed=0.00952x elapsed=0:01:32.75    \nframe=   56 fps=0.6 q=31.2 size=       0KiB time=00:00:00.90 bitrate=   0.4kbits/s speed=0.00965x elapsed=0:01:33.26    \nframe=   56 fps=0.6 q=31.2 size=       0KiB time=00:00:00.90 bitrate=   0.4kbits/s speed=0.00959x elapsed=0:01:33.80    \nframe=   56 fps=0.6 q=31.2 size=       0KiB time=00:00:00.90 bitrate=   0.4kbits/s speed=0.00954x elapsed=0:01:34.36    \nframe=   56 fps=0.6 q=31.2 size=       0KiB time=00:00:00.90 bitrate=   0.4kbits/s speed=0.00948x elapsed=0:01:34.92    \nframe=   56 fps=0.6 q=31.2 size=       0KiB time=00:00:00.90 bitrate=   0.4kbits/s speed=0.00943x elapsed=0:01:35.44    \nframe=   56 fps=0.6 q=31.2 size=       0KiB time=00:00:00.90 bitrate=   0.4kbits/s speed=0.00938x elapsed=0:01:35.97    \nframe=   56 fps=0.6 q=31.2 size=       0KiB time=00:00:00.90 bitrate=   0.4kbits/s speed=0.00933x elapsed=0:01:36.49    \nframe=   57 fps=0.6 q=30.9 size=       0KiB time=00:00:00.91 bitrate=   0.4kbits/s speed=0.00945x elapsed=0:01:37.05    \nframe=   57 fps=0.6 q=30.9 size=       0KiB time=00:00:00.91 bitrate=   0.4kbits/s speed=0.00939x elapsed=0:01:37.58    \nframe=   57 fps=0.6 q=30.9 size=       0KiB time=00:00:00.91 bitrate=   0.4kbits/s speed=0.00934x elapsed=0:01:38.12    \nframe=   57 fps=0.6 q=30.9 size=       0KiB time=00:00:00.91 bitrate=   0.4kbits/s speed=0.00929x elapsed=0:01:38.67    \nframe=   57 fps=0.6 q=30.9 size=       0KiB time=00:00:00.91 bitrate=   0.4kbits/s speed=0.00923x elapsed=0:01:39.29    \nframe=   57 fps=0.6 q=30.9 size=       0KiB time=00:00:00.91 bitrate=   0.4kbits/s speed=0.00918x elapsed=0:01:39.90    \nframe=   57 fps=0.6 q=30.9 size=       0KiB time=00:00:00.91 bitrate=   0.4kbits/s speed=0.00912x elapsed=0:01:40.45    \nframe=   57 fps=0.6 q=30.9 size=       0KiB time=00:00:00.91 bitrate=   0.4kbits/s speed=0.00907x elapsed=0:01:41.06    \nframe=   57 fps=0.6 q=30.9 size=       0KiB time=00:00:00.91 bitrate=   0.4kbits/s speed=0.00902x elapsed=0:01:41.60    \nframe=   58 fps=0.6 q=25.0 size=     256KiB time=00:00:00.93 bitrate=2247.3kbits/s speed=0.00913x elapsed=0:01:42.17    \nframe=   58 fps=0.6 q=25.0 size=     256KiB time=00:00:00.93 bitrate=2247.3kbits/s speed=0.00908x elapsed=0:01:42.74    \nframe=   58 fps=0.6 q=25.0 size=     256KiB time=00:00:00.93 bitrate=2247.3kbits/s speed=0.00903x elapsed=0:01:43.34    \nframe=   58 fps=0.6 q=25.0 size=     256KiB time=00:00:00.93 bitrate=2247.3kbits/s speed=0.00898x elapsed=0:01:43.92    \nframe=   59 fps=0.6 q=30.2 size=     256KiB time=00:00:00.95 bitrate=2207.9kbits/s speed=0.00909x elapsed=0:01:44.48    \nframe=   59 fps=0.6 q=30.2 size=     256KiB time=00:00:00.95 bitrate=2207.9kbits/s speed=0.00905x elapsed=0:01:45.01    \nframe=   59 fps=0.6 q=30.2 size=     256KiB time=00:00:00.95 bitrate=2207.9kbits/s speed=0.009x elapsed=0:01:45.57    \nframe=   60 fps=0.6 q=31.3 size=     256KiB time=00:00:00.96 bitrate=2169.8kbits/s speed=0.00911x elapsed=0:01:46.13    \nframe=   60 fps=0.6 q=31.3 size=     256KiB time=00:00:00.96 bitrate=2169.8kbits/s speed=0.00906x elapsed=0:01:46.64    \nframe=   60 fps=0.6 q=31.3 size=     256KiB time=00:00:00.96 bitrate=2169.8kbits/s speed=0.00902x elapsed=0:01:47.18    \nframe=   61 fps=0.6 q=31.2 size=     256KiB time=00:00:00.98 bitrate=2133.1kbits/s speed=0.00913x elapsed=0:01:47.69    \nframe=   61 fps=0.6 q=31.2 size=     256KiB time=00:00:00.98 bitrate=2133.1kbits/s speed=0.00909x elapsed=0:01:48.21    \nframe=   61 fps=0.6 q=31.2 size=     256KiB time=00:00:00.98 bitrate=2133.1kbits/s speed=0.00904x elapsed=0:01:48.73    \nframe=   62 fps=0.6 q=24.7 size=     256KiB time=00:00:01.00 bitrate=2097.5kbits/s speed=0.00915x elapsed=0:01:49.25    \nframe=   62 fps=0.6 q=24.7 size=     256KiB time=00:00:01.00 bitrate=2097.5kbits/s speed=0.00911x elapsed=0:01:49.77    \nframe=   63 fps=0.6 q=30.2 size=     256KiB time=00:00:01.01 bitrate=2063.1kbits/s speed=0.00922x elapsed=0:01:50.29    \nframe=   64 fps=0.6 q=31.1 size=     256KiB time=00:00:01.03 bitrate=2029.8kbits/s speed=0.00932x elapsed=0:01:50.81    \nframe=   64 fps=0.6 q=31.1 size=     256KiB time=00:00:01.03 bitrate=2029.8kbits/s speed=0.00928x elapsed=0:01:51.33    \nframe=   64 fps=0.6 q=31.1 size=     256KiB time=00:00:01.03 bitrate=2029.8kbits/s speed=0.00924x elapsed=0:01:51.88    \nframe=   65 fps=0.6 q=31.3 size=     256KiB time=00:00:01.05 bitrate=1997.6kbits/s speed=0.00934x elapsed=0:01:52.44    \nframe=   66 fps=0.6 q=31.3 size=     256KiB time=00:00:01.06 bitrate=1966.4kbits/s speed=0.00944x elapsed=0:01:52.96    \nframe=   66 fps=0.6 q=31.3 size=     256KiB time=00:00:01.06 bitrate=1966.4kbits/s speed=0.0094x elapsed=0:01:53.48    \nframe=   67 fps=0.6 q=25.6 size=     256KiB time=00:00:01.08 bitrate=1936.2kbits/s speed=0.0095x elapsed=0:01:54.03    \nframe=   67 fps=0.6 q=25.6 size=     256KiB time=00:00:01.08 bitrate=1936.2kbits/s speed=0.00946x elapsed=0:01:54.55    \nframe=   67 fps=0.6 q=25.6 size=     256KiB time=00:00:01.08 bitrate=1936.2kbits/s speed=0.00941x elapsed=0:01:55.06    \nframe=   68 fps=0.6 q=30.3 size=     256KiB time=00:00:01.10 bitrate=1906.8kbits/s speed=0.00952x elapsed=0:01:55.58    \nframe=   69 fps=0.6 q=32.2 size=     256KiB time=00:00:01.11 bitrate=1878.4kbits/s speed=0.00962x elapsed=0:01:56.11    \nframe=   69 fps=0.6 q=32.2 size=     256KiB time=00:00:01.11 bitrate=1878.4kbits/s speed=0.00957x elapsed=0:01:56.63    \nframe=   69 fps=0.6 q=32.2 size=     256KiB time=00:00:01.11 bitrate=1878.4kbits/s speed=0.00953x elapsed=0:01:57.15    \nframe=   70 fps=0.6 q=31.2 size=     256KiB time=00:00:01.13 bitrate=1850.7kbits/s speed=0.00963x elapsed=0:01:57.67    \nframe=   70 fps=0.6 q=31.2 size=     256KiB time=00:00:01.13 bitrate=1850.7kbits/s speed=0.00959x elapsed=0:01:58.20    \nframe=   71 fps=0.6 q=31.3 size=     256KiB time=00:00:01.15 bitrate=1823.9kbits/s speed=0.00969x elapsed=0:01:58.73    \nframe=   71 fps=0.6 q=31.3 size=     256KiB time=00:00:01.15 bitrate=1823.9kbits/s speed=0.00964x elapsed=0:01:59.25    \nframe=   72 fps=0.6 q=24.6 size=     256KiB time=00:00:01.16 bitrate=1797.9kbits/s speed=0.00974x elapsed=0:01:59.77    \nframe=   73 fps=0.6 q=29.4 size=     256KiB time=00:00:01.18 bitrate=1772.5kbits/s speed=0.00984x elapsed=0:02:00.28    \nframe=   74 fps=0.6 q=32.2 size=     256KiB time=00:00:01.20 bitrate=1747.9kbits/s speed=0.00993x elapsed=0:02:00.80    \nframe=   74 fps=0.6 q=32.2 size=     256KiB time=00:00:01.20 bitrate=1747.9kbits/s speed=0.00989x elapsed=0:02:01.32    \nframe=   75 fps=0.6 q=32.3 size=     256KiB time=00:00:01.21 bitrate=1724.0kbits/s speed=0.00998x elapsed=0:02:01.86    \nframe=   75 fps=0.6 q=32.3 size=     256KiB time=00:00:01.21 bitrate=1724.0kbits/s speed=0.00994x elapsed=0:02:02.37    \nframe=   75 fps=0.6 q=32.3 size=     256KiB time=00:00:01.21 bitrate=1724.0kbits/s speed=0.0099x elapsed=0:02:02.88    \nframe=   76 fps=0.6 q=32.3 size=     256KiB time=00:00:01.23 bitrate=1700.7kbits/s speed=0.00999x elapsed=0:02:03.42    \nframe=   76 fps=0.6 q=32.3 size=     256KiB time=00:00:01.23 bitrate=1700.7kbits/s speed=0.00995x elapsed=0:02:03.94    \nframe=   77 fps=0.6 q=25.3 size=     256KiB time=00:00:01.25 bitrate=1678.0kbits/s speed=0.01x elapsed=0:02:04.47    \nframe=   77 fps=0.6 q=25.3 size=     256KiB time=00:00:01.25 bitrate=1678.0kbits/s speed=0.01x elapsed=0:02:04.98    \nframe=   78 fps=0.6 q=30.0 size=     256KiB time=00:00:01.26 bitrate=1655.9kbits/s speed=0.0101x elapsed=0:02:05.50    \nframe=   79 fps=0.6 q=32.1 size=     256KiB time=00:00:01.28 bitrate=1634.4kbits/s speed=0.0102x elapsed=0:02:06.03    \nframe=   79 fps=0.6 q=32.1 size=     256KiB time=00:00:01.28 bitrate=1634.4kbits/s speed=0.0101x elapsed=0:02:06.56    \nframe=   79 fps=0.6 q=32.1 size=     256KiB time=00:00:01.28 bitrate=1634.4kbits/s speed=0.0101x elapsed=0:02:07.10    \nframe=   80 fps=0.6 q=32.1 size=     256KiB time=00:00:01.30 bitrate=1613.5kbits/s speed=0.0102x elapsed=0:02:07.64    \nframe=   80 fps=0.6 q=32.1 size=     256KiB time=00:00:01.30 bitrate=1613.5kbits/s speed=0.0101x elapsed=0:02:08.17    \nframe=   80 fps=0.6 q=32.1 size=     256KiB time=00:00:01.30 bitrate=1613.5kbits/s speed=0.0101x elapsed=0:02:08.70    \nframe=   81 fps=0.6 q=32.1 size=     256KiB time=00:00:01.31 bitrate=1593.0kbits/s speed=0.0102x elapsed=0:02:09.23    \nframe=   81 fps=0.6 q=32.1 size=     256KiB time=00:00:01.31 bitrate=1593.0kbits/s speed=0.0101x elapsed=0:02:09.77    \nframe=   81 fps=0.6 q=32.1 size=     256KiB time=00:00:01.31 bitrate=1593.0kbits/s speed=0.0101x elapsed=0:02:10.30    \nframe=   82 fps=0.6 q=24.6 size=     256KiB time=00:00:01.33 bitrate=1573.1kbits/s speed=0.0102x elapsed=0:02:10.82    \nframe=   82 fps=0.6 q=24.6 size=     256KiB time=00:00:01.33 bitrate=1573.1kbits/s speed=0.0102x elapsed=0:02:11.35    \nframe=   83 fps=0.6 q=30.9 size=     256KiB time=00:00:01.35 bitrate=1553.7kbits/s speed=0.0102x elapsed=0:02:11.87    \nframe=   84 fps=0.6 q=32.1 size=     256KiB time=00:00:01.36 bitrate=1534.8kbits/s speed=0.0103x elapsed=0:02:12.39    \nframe=   84 fps=0.6 q=32.1 size=     256KiB time=00:00:01.36 bitrate=1534.8kbits/s speed=0.0103x elapsed=0:02:12.93    \nframe=   84 fps=0.6 q=32.1 size=     256KiB time=00:00:01.36 bitrate=1534.8kbits/s speed=0.0102x elapsed=0:02:13.45    \nframe=   84 fps=0.6 q=32.1 size=     256KiB time=00:00:01.36 bitrate=1534.8kbits/s speed=0.0102x elapsed=0:02:13.99    \nframe=   85 fps=0.6 q=32.1 size=     256KiB time=00:00:01.38 bitrate=1516.3kbits/s speed=0.0103x elapsed=0:02:14.49    \nframe=   85 fps=0.6 q=32.1 size=     256KiB time=00:00:01.38 bitrate=1516.3kbits/s speed=0.0102x elapsed=0:02:15.02    \nframe=   86 fps=0.6 q=32.2 size=     256KiB time=00:00:01.40 bitrate=1498.2kbits/s speed=0.0103x elapsed=0:02:15.55    \nframe=   86 fps=0.6 q=32.2 size=     256KiB time=00:00:01.40 bitrate=1498.2kbits/s speed=0.0103x elapsed=0:02:16.07    \nframe=   87 fps=0.6 q=24.4 size=     256KiB time=00:00:01.41 bitrate=1480.6kbits/s speed=0.0104x elapsed=0:02:16.61    \nframe=   87 fps=0.6 q=24.4 size=     256KiB time=00:00:01.41 bitrate=1480.6kbits/s speed=0.0103x elapsed=0:02:17.14    \nframe=   87 fps=0.6 q=24.4 size=     256KiB time=00:00:01.41 bitrate=1480.6kbits/s speed=0.0103x elapsed=0:02:17.69    \nframe=   88 fps=0.6 q=30.6 size=     256KiB time=00:00:01.43 bitrate=1463.4kbits/s speed=0.0104x elapsed=0:02:18.20    \nframe=   88 fps=0.6 q=30.6 size=     256KiB time=00:00:01.43 bitrate=1463.4kbits/s speed=0.0103x elapsed=0:02:18.73    \nframe=   88 fps=0.6 q=30.6 size=     256KiB time=00:00:01.43 bitrate=1463.4kbits/s speed=0.0103x elapsed=0:02:19.24    \nframe=   89 fps=0.6 q=32.1 size=     256KiB time=00:00:01.45 bitrate=1446.6kbits/s speed=0.0104x elapsed=0:02:19.77    \nframe=   89 fps=0.6 q=32.1 size=     256KiB time=00:00:01.45 bitrate=1446.6kbits/s speed=0.0103x elapsed=0:02:20.27    \nframe=   90 fps=0.6 q=24.2 size=     256KiB time=00:00:01.46 bitrate=1430.1kbits/s speed=0.0104x elapsed=0:02:20.80    \nframe=   90 fps=0.6 q=24.2 size=     256KiB time=00:00:01.46 bitrate=1430.1kbits/s speed=0.0104x elapsed=0:02:21.32    \nframe=   90 fps=0.6 q=24.2 size=     256KiB time=00:00:01.46 bitrate=1430.1kbits/s speed=0.0103x elapsed=0:02:21.86    \nframe=   90 fps=0.6 q=24.2 size=     256KiB time=00:00:01.46 bitrate=1430.1kbits/s speed=0.0103x elapsed=0:02:22.37    \nframe=   90 fps=0.6 q=24.2 size=     256KiB time=00:00:01.46 bitrate=1430.1kbits/s speed=0.0103x elapsed=0:02:22.90    \nframe=   91 fps=0.6 q=29.9 size=     256KiB time=00:00:01.48 bitrate=1414.0kbits/s speed=0.0103x elapsed=0:02:23.44    \nframe=   91 fps=0.6 q=29.9 size=     256KiB time=00:00:01.48 bitrate=1414.0kbits/s speed=0.0103x elapsed=0:02:24.01    \nframe=   91 fps=0.6 q=29.9 size=     256KiB time=00:00:01.48 bitrate=1414.0kbits/s speed=0.0103x elapsed=0:02:24.56    \nframe=   91 fps=0.6 q=29.9 size=     256KiB time=00:00:01.48 bitrate=1414.0kbits/s speed=0.0102x elapsed=0:02:25.09    \nframe=   91 fps=0.6 q=29.9 size=     256KiB time=00:00:01.48 bitrate=1414.0kbits/s speed=0.0102x elapsed=0:02:25.60    \nframe=   92 fps=0.6 q=31.0 size=     256KiB time=00:00:01.50 bitrate=1398.3kbits/s speed=0.0103x elapsed=0:02:26.14    \nframe=   92 fps=0.6 q=31.0 size=     256KiB time=00:00:01.50 bitrate=1398.3kbits/s speed=0.0102x elapsed=0:02:26.69    \nframe=   92 fps=0.6 q=31.0 size=     256KiB time=00:00:01.50 bitrate=1398.3kbits/s speed=0.0102x elapsed=0:02:27.22    \nframe=   92 fps=0.6 q=31.0 size=     256KiB time=00:00:01.50 bitrate=1398.3kbits/s speed=0.0102x elapsed=0:02:27.73    \nframe=   92 fps=0.6 q=31.0 size=     256KiB time=00:00:01.50 bitrate=1398.3kbits/s speed=0.0101x elapsed=0:02:28.26    \nframe=   92 fps=0.6 q=31.0 size=     256KiB time=00:00:01.50 bitrate=1398.3kbits/s speed=0.0101x elapsed=0:02:28.84    \nframe=   92 fps=0.6 q=31.0 size=     256KiB time=00:00:01.50 bitrate=1398.3kbits/s speed=0.01x elapsed=0:02:29.35    \nframe=   92 fps=0.6 q=31.0 size=     256KiB time=00:00:01.50 bitrate=1398.3kbits/s speed=0.01x elapsed=0:02:29.88    \nframe=   93 fps=0.6 q=31.1 size=     256KiB time=00:00:01.51 bitrate=1383.0kbits/s speed=0.0101x elapsed=0:02:30.43    \nframe=   93 fps=0.6 q=31.1 size=     256KiB time=00:00:01.51 bitrate=1383.0kbits/s speed=0.01x elapsed=0:02:31.03    \nframe=   93 fps=0.6 q=31.1 size=     256KiB time=00:00:01.51 bitrate=1383.0kbits/s speed=0.01x elapsed=0:02:31.56    \nframe=   94 fps=0.6 q=31.1 size=     256KiB time=00:00:01.53 bitrate=1367.9kbits/s speed=0.0101x elapsed=0:02:32.09    \nframe=   94 fps=0.6 q=31.1 size=     256KiB time=00:00:01.53 bitrate=1367.9kbits/s speed=0.01x elapsed=0:02:32.62    \nframe=   94 fps=0.6 q=31.1 size=     256KiB time=00:00:01.53 bitrate=1367.9kbits/s speed=0.01x elapsed=0:02:33.20    \nframe=   94 fps=0.6 q=31.1 size=     256KiB time=00:00:01.53 bitrate=1367.9kbits/s speed=0.00997x elapsed=0:02:33.80    \nframe=   94 fps=0.6 q=31.1 size=     256KiB time=00:00:01.53 bitrate=1367.9kbits/s speed=0.00993x elapsed=0:02:34.36    \nframe=   95 fps=0.6 q=24.1 size=     256KiB time=00:00:01.55 bitrate=1353.2kbits/s speed=0.01x elapsed=0:02:34.88    \nframe=   95 fps=0.6 q=24.1 size=     256KiB time=00:00:01.55 bitrate=1353.2kbits/s speed=0.00997x elapsed=0:02:35.43    \nframe=   95 fps=0.6 q=24.1 size=     256KiB time=00:00:01.55 bitrate=1353.2kbits/s speed=0.00994x elapsed=0:02:35.99    \nframe=   95 fps=0.6 q=24.1 size=     256KiB time=00:00:01.55 bitrate=1353.2kbits/s speed=0.00989x elapsed=0:02:36.65    \nframe=   95 fps=0.6 q=24.1 size=     256KiB time=00:00:01.55 bitrate=1353.2kbits/s speed=0.00986x elapsed=0:02:37.23    \nframe=   96 fps=0.6 q=30.1 size=     256KiB time=00:00:01.56 bitrate=1338.8kbits/s speed=0.00993x elapsed=0:02:37.79    \nframe=   96 fps=0.6 q=30.1 size=     256KiB time=00:00:01.56 bitrate=1338.8kbits/s speed=0.00989x elapsed=0:02:38.33    \nframe=   96 fps=0.6 q=30.1 size=     256KiB time=00:00:01.56 bitrate=1338.8kbits/s speed=0.00986x elapsed=0:02:38.88    \nframe=   96 fps=0.6 q=30.1 size=     256KiB time=00:00:01.56 bitrate=1338.8kbits/s speed=0.00983x elapsed=0:02:39.41    \nframe=   97 fps=0.6 q=31.1 size=     256KiB time=00:00:01.58 bitrate=1324.7kbits/s speed=0.0099x elapsed=0:02:39.93    \nframe=   97 fps=0.6 q=31.1 size=     256KiB time=00:00:01.58 bitrate=1324.7kbits/s speed=0.00986x elapsed=0:02:40.50    \nframe=   97 fps=0.6 q=31.1 size=     256KiB time=00:00:01.58 bitrate=1324.7kbits/s speed=0.00983x elapsed=0:02:41.02    \nframe=   97 fps=0.6 q=31.1 size=     256KiB time=00:00:01.58 bitrate=1324.7kbits/s speed=0.0098x elapsed=0:02:41.58    \nframe=   97 fps=0.6 q=31.1 size=     256KiB time=00:00:01.58 bitrate=1324.7kbits/s speed=0.00977x elapsed=0:02:42.14    \nframe=   97 fps=0.6 q=31.1 size=     256KiB time=00:00:01.58 bitrate=1324.7kbits/s speed=0.00973x elapsed=0:02:42.70    \nframe=   97 fps=0.6 q=31.1 size=     256KiB time=00:00:01.58 bitrate=1324.7kbits/s speed=0.0097x elapsed=0:02:43.25    \nframe=   97 fps=0.6 q=31.1 size=     256KiB time=00:00:01.58 bitrate=1324.7kbits/s speed=0.00966x elapsed=0:02:43.82    \nframe=   97 fps=0.6 q=31.1 size=     256KiB time=00:00:01.58 bitrate=1324.7kbits/s speed=0.00963x elapsed=0:02:44.43    \nframe=   97 fps=0.6 q=31.1 size=     256KiB time=00:00:01.58 bitrate=1324.7kbits/s speed=0.0096x elapsed=0:02:44.99    \nframe=   97 fps=0.6 q=31.1 size=     256KiB time=00:00:01.58 bitrate=1324.7kbits/s speed=0.00957x elapsed=0:02:45.51    \nframe=   98 fps=0.6 q=31.2 size=     256KiB time=00:00:01.60 bitrate=1310.9kbits/s speed=0.00964x elapsed=0:02:46.01    \nframe=   98 fps=0.6 q=31.2 size=     256KiB time=00:00:01.60 bitrate=1310.9kbits/s speed=0.00961x elapsed=0:02:46.54    \nframe=   98 fps=0.6 q=31.2 size=     256KiB time=00:00:01.60 bitrate=1310.9kbits/s speed=0.00958x elapsed=0:02:47.07    \nframe=   99 fps=0.6 q=31.9 size=     256KiB time=00:00:01.61 bitrate=1297.4kbits/s speed=0.00965x elapsed=0:02:47.61    \nframe=   99 fps=0.6 q=31.9 size=     256KiB time=00:00:01.61 bitrate=1297.4kbits/s speed=0.00961x elapsed=0:02:48.14    \nframe=  100 fps=0.6 q=24.9 size=     256KiB time=00:00:01.63 bitrate=1284.2kbits/s speed=0.00968x elapsed=0:02:48.68    \nframe=  100 fps=0.6 q=24.9 size=     256KiB time=00:00:01.63 bitrate=1284.2kbits/s speed=0.00965x elapsed=0:02:49.24    \nframe=  101 fps=0.6 q=30.0 size=     256KiB time=00:00:01.65 bitrate=1271.2kbits/s speed=0.00972x elapsed=0:02:49.76    \nframe=  101 fps=0.6 q=30.0 size=     256KiB time=00:00:01.65 bitrate=1271.2kbits/s speed=0.00969x elapsed=0:02:50.28    \nframe=  101 fps=0.6 q=30.0 size=     256KiB time=00:00:01.65 bitrate=1271.2kbits/s speed=0.00966x elapsed=0:02:50.81    \nframe=  102 fps=0.6 q=32.2 size=     256KiB time=00:00:01.66 bitrate=1258.5kbits/s speed=0.00973x elapsed=0:02:51.32    \nframe=  102 fps=0.6 q=32.2 size=     256KiB time=00:00:01.66 bitrate=1258.5kbits/s speed=0.0097x elapsed=0:02:51.85    \nframe=  102 fps=0.6 q=32.2 size=     256KiB time=00:00:01.66 bitrate=1258.5kbits/s speed=0.00967x elapsed=0:02:52.36    \nframe=  103 fps=0.6 q=32.2 size=     256KiB time=00:00:01.68 bitrate=1246.0kbits/s speed=0.00974x elapsed=0:02:52.88    \nframe=  104 fps=0.6 q=25.2 size=     256KiB time=00:00:01.70 bitrate=1233.8kbits/s speed=0.0098x elapsed=0:02:53.38    \nframe=  104 fps=0.6 q=25.2 size=     256KiB time=00:00:01.70 bitrate=1233.8kbits/s speed=0.00977x elapsed=0:02:53.91    \nframe=  104 fps=0.6 q=25.2 size=     256KiB time=00:00:01.70 bitrate=1233.8kbits/s speed=0.00974x elapsed=0:02:54.46    \nframe=  105 fps=0.6 q=30.3 size=     512KiB time=00:00:01.71 bitrate=2443.5kbits/s speed=0.00981x elapsed=0:02:54.97    \nframe=  106 fps=0.6 q=32.1 size=     512KiB time=00:00:01.73 bitrate=2420.0kbits/s speed=0.00988x elapsed=0:02:55.50    \nframe=  106 fps=0.6 q=32.1 size=     512KiB time=00:00:01.73 bitrate=2420.0kbits/s speed=0.00985x elapsed=0:02:56.01    \nframe=  106 fps=0.6 q=32.1 size=     512KiB time=00:00:01.73 bitrate=2420.0kbits/s speed=0.00982x elapsed=0:02:56.53    \nframe=  107 fps=0.6 q=32.1 size=     512KiB time=00:00:01.75 bitrate=2396.9kbits/s speed=0.00988x elapsed=0:02:57.06    \nframe=  107 fps=0.6 q=32.1 size=     512KiB time=00:00:01.75 bitrate=2396.9kbits/s speed=0.00985x elapsed=0:02:57.57    \nframe=  107 fps=0.6 q=32.1 size=     512KiB time=00:00:01.75 bitrate=2396.9kbits/s speed=0.00983x elapsed=0:02:58.09    \nframe=  107 fps=0.6 q=32.1 size=     512KiB time=00:00:01.75 bitrate=2396.9kbits/s speed=0.0098x elapsed=0:02:58.61    \nframe=  108 fps=0.6 q=32.2 size=     512KiB time=00:00:01.76 bitrate=2374.3kbits/s speed=0.00986x elapsed=0:02:59.13    \nframe=  108 fps=0.6 q=32.2 size=     512KiB time=00:00:01.76 bitrate=2374.3kbits/s speed=0.00983x elapsed=0:02:59.64    \nframe=  109 fps=0.6 q=25.0 size=     512KiB time=00:00:01.78 bitrate=2352.1kbits/s speed=0.0099x elapsed=0:03:00.17    \nframe=  110 fps=0.6 q=30.3 size=     512KiB time=00:00:01.80 bitrate=2330.4kbits/s speed=0.00996x elapsed=0:03:00.68    \nframe=  110 fps=0.6 q=30.3 size=     512KiB time=00:00:01.80 bitrate=2330.4kbits/s speed=0.00993x elapsed=0:03:01.21    \nframe=  111 fps=0.6 q=32.0 size=     512KiB time=00:00:01.81 bitrate=2309.0kbits/s speed=0.01x elapsed=0:03:01.74    \nframe=  111 fps=0.6 q=32.0 size=     512KiB time=00:00:01.81 bitrate=2309.0kbits/s speed=0.00997x elapsed=0:03:02.26    \nframe=  112 fps=0.6 q=32.1 size=     512KiB time=00:00:01.83 bitrate=2288.0kbits/s speed=0.01x elapsed=0:03:02.79    \nframe=  113 fps=0.6 q=32.3 size=     512KiB time=00:00:01.85 bitrate=2267.4kbits/s speed=0.0101x elapsed=0:03:03.29    \nframe=  113 fps=0.6 q=32.3 size=     512KiB time=00:00:01.85 bitrate=2267.4kbits/s speed=0.0101x elapsed=0:03:03.83    \nframe=  114 fps=0.6 q=26.1 size=     512KiB time=00:00:01.86 bitrate=2247.1kbits/s speed=0.0101x elapsed=0:03:04.36    \nframe=  114 fps=0.6 q=26.1 size=     512KiB time=00:00:01.86 bitrate=2247.1kbits/s speed=0.0101x elapsed=0:03:04.87    \nframe=  115 fps=0.6 q=30.9 size=     512KiB time=00:00:01.88 bitrate=2227.3kbits/s speed=0.0102x elapsed=0:03:05.39    \nframe=  115 fps=0.6 q=30.9 size=     512KiB time=00:00:01.88 bitrate=2227.3kbits/s speed=0.0101x elapsed=0:03:05.91    \nframe=  116 fps=0.6 q=32.2 size=     512KiB time=00:00:01.90 bitrate=2207.7kbits/s speed=0.0102x elapsed=0:03:06.44    \nframe=  117 fps=0.6 q=31.2 size=     512KiB time=00:00:01.91 bitrate=2188.5kbits/s speed=0.0103x elapsed=0:03:06.97    \nframe=  118 fps=0.6 q=24.7 size=     512KiB time=00:00:01.93 bitrate=2169.7kbits/s speed=0.0103x elapsed=0:03:07.51    \nframe=  118 fps=0.6 q=24.7 size=     512KiB time=00:00:01.93 bitrate=2169.7kbits/s speed=0.0103x elapsed=0:03:08.02    \nframe=  119 fps=0.6 q=29.6 size=     512KiB time=00:00:01.95 bitrate=2151.1kbits/s speed=0.0103x elapsed=0:03:08.56    \nframe=  120 fps=0.6 q=31.2 size=     512KiB time=00:00:01.96 bitrate=2132.9kbits/s speed=0.0104x elapsed=0:03:09.11    \nframe=  121 fps=0.6 q=31.2 size=     512KiB time=00:00:01.98 bitrate=2115.0kbits/s speed=0.0105x elapsed=0:03:09.66    \nframe=  122 fps=0.6 q=32.0 size=     512KiB time=00:00:02.00 bitrate=2097.3kbits/s speed=0.0105x elapsed=0:03:10.17    \nframe=  122 fps=0.6 q=32.0 size=     512KiB time=00:00:02.00 bitrate=2097.3kbits/s speed=0.0105x elapsed=0:03:10.70    \nframe=  122 fps=0.6 q=32.0 size=     512KiB time=00:00:02.00 bitrate=2097.3kbits/s speed=0.0105x elapsed=0:03:11.23    \nframe=  123 fps=0.6 q=24.5 size=     512KiB time=00:00:02.01 bitrate=2080.0kbits/s speed=0.0105x elapsed=0:03:11.76    \nframe=  123 fps=0.6 q=24.5 size=     512KiB time=00:00:02.01 bitrate=2080.0kbits/s speed=0.0105x elapsed=0:03:12.28    \nframe=  124 fps=0.6 q=29.9 size=     512KiB time=00:00:02.03 bitrate=2062.9kbits/s speed=0.0105x elapsed=0:03:12.79    \nframe=  124 fps=0.6 q=29.9 size=     512KiB time=00:00:02.03 bitrate=2062.9kbits/s speed=0.0105x elapsed=0:03:13.31    \nframe=  125 fps=0.6 q=31.1 size=     512KiB time=00:00:02.05 bitrate=2046.2kbits/s speed=0.0106x elapsed=0:03:13.84    \nframe=  125 fps=0.6 q=31.1 size=     512KiB time=00:00:02.05 bitrate=2046.2kbits/s speed=0.0105x elapsed=0:03:14.36    \nframe=  126 fps=0.6 q=24.0 size=     512KiB time=00:00:02.06 bitrate=2029.7kbits/s speed=0.0106x elapsed=0:03:14.88    \nframe=  126 fps=0.6 q=24.0 size=     512KiB time=00:00:02.06 bitrate=2029.7kbits/s speed=0.0106x elapsed=0:03:15.38    \nframe=  127 fps=0.6 q=28.3 size=     512KiB time=00:00:02.08 bitrate=2013.4kbits/s speed=0.0106x elapsed=0:03:15.91    \nframe=  128 fps=0.7 q=30.8 size=     512KiB time=00:00:02.10 bitrate=1997.5kbits/s speed=0.0107x elapsed=0:03:16.46    \nframe=  128 fps=0.6 q=30.8 size=     512KiB time=00:00:02.10 bitrate=1997.5kbits/s speed=0.0107x elapsed=0:03:16.98    \nframe=  128 fps=0.6 q=30.8 size=     512KiB time=00:00:02.10 bitrate=1997.5kbits/s speed=0.0106x elapsed=0:03:17.51    \nframe=  128 fps=0.6 q=30.8 size=     512KiB time=00:00:02.10 bitrate=1997.5kbits/s speed=0.0106x elapsed=0:03:18.04    \nframe=  129 fps=0.6 q=31.1 size=     512KiB time=00:00:02.11 bitrate=1981.7kbits/s speed=0.0107x elapsed=0:03:18.56    \nframe=  129 fps=0.6 q=31.1 size=     512KiB time=00:00:02.11 bitrate=1981.7kbits/s speed=0.0106x elapsed=0:03:19.09    \nframe=  129 fps=0.6 q=31.1 size=     512KiB time=00:00:02.11 bitrate=1981.7kbits/s speed=0.0106x elapsed=0:03:19.63    \nframe=  129 fps=0.6 q=31.1 size=     512KiB time=00:00:02.11 bitrate=1981.7kbits/s speed=0.0106x elapsed=0:03:20.15    \nframe=  130 fps=0.6 q=30.9 size=     512KiB time=00:00:02.13 bitrate=1966.2kbits/s speed=0.0106x elapsed=0:03:20.70    \nframe=  131 fps=0.7 q=24.8 size=     512KiB time=00:00:02.15 bitrate=1951.0kbits/s speed=0.0107x elapsed=0:03:21.23    \nframe=  131 fps=0.6 q=24.8 size=     512KiB time=00:00:02.15 bitrate=1951.0kbits/s speed=0.0107x elapsed=0:03:21.76    \nframe=  132 fps=0.7 q=29.1 size=     512KiB time=00:00:02.16 bitrate=1936.0kbits/s speed=0.0107x elapsed=0:03:22.29    \nframe=  132 fps=0.7 q=29.1 size=     512KiB time=00:00:02.16 bitrate=1936.0kbits/s speed=0.0107x elapsed=0:03:22.81    \nframe=  132 fps=0.6 q=29.1 size=     512KiB time=00:00:02.16 bitrate=1936.0kbits/s speed=0.0107x elapsed=0:03:23.33    \nframe=  133 fps=0.7 q=31.1 size=     512KiB time=00:00:02.18 bitrate=1921.2kbits/s speed=0.0107x elapsed=0:03:23.86    \nframe=  133 fps=0.7 q=31.1 size=     512KiB time=00:00:02.18 bitrate=1921.2kbits/s speed=0.0107x elapsed=0:03:24.37    \nframe=  133 fps=0.6 q=31.1 size=     512KiB time=00:00:02.18 bitrate=1921.2kbits/s speed=0.0107x elapsed=0:03:24.89    \nframe=  133 fps=0.6 q=31.1 size=     512KiB time=00:00:02.18 bitrate=1921.2kbits/s speed=0.0106x elapsed=0:03:25.41    \nframe=  133 fps=0.6 q=31.1 size=     512KiB time=00:00:02.18 bitrate=1921.2kbits/s speed=0.0106x elapsed=0:03:25.96    \nframe=  133 fps=0.6 q=31.1 size=     512KiB time=00:00:02.18 bitrate=1921.2kbits/s speed=0.0106x elapsed=0:03:26.48    \nframe=  134 fps=0.6 q=31.1 size=     512KiB time=00:00:02.20 bitrate=1906.7kbits/s speed=0.0106x elapsed=0:03:27.01    \nframe=  135 fps=0.7 q=31.3 size=     512KiB time=00:00:02.21 bitrate=1892.3kbits/s speed=0.0107x elapsed=0:03:27.55    \nframe=  135 fps=0.6 q=31.3 size=     512KiB time=00:00:02.21 bitrate=1892.3kbits/s speed=0.0107x elapsed=0:03:28.06    \nframe=  135 fps=0.6 q=31.3 size=     512KiB time=00:00:02.21 bitrate=1892.3kbits/s speed=0.0106x elapsed=0:03:28.57    \nframe=  135 fps=0.6 q=31.3 size=     512KiB time=00:00:02.21 bitrate=1892.3kbits/s speed=0.0106x elapsed=0:03:29.10    \nframe=  135 fps=0.6 q=31.3 size=     512KiB time=00:00:02.21 bitrate=1892.3kbits/s speed=0.0106x elapsed=0:03:29.64    \nframe=  135 fps=0.6 q=31.3 size=     512KiB time=00:00:02.21 bitrate=1892.3kbits/s speed=0.0105x elapsed=0:03:30.16    \nframe=  136 fps=0.6 q=25.2 size=     512KiB time=00:00:02.23 bitrate=1878.2kbits/s speed=0.0106x elapsed=0:03:30.69    \nframe=  137 fps=0.6 q=30.5 size=     512KiB time=00:00:02.25 bitrate=1864.3kbits/s speed=0.0107x elapsed=0:03:31.22    \nframe=  138 fps=0.7 q=32.0 size=     512KiB time=00:00:02.26 bitrate=1850.6kbits/s speed=0.0107x elapsed=0:03:31.77    \nframe=  138 fps=0.6 q=32.0 size=     512KiB time=00:00:02.26 bitrate=1850.6kbits/s speed=0.0107x elapsed=0:03:32.31    \nframe=  138 fps=0.6 q=32.0 size=     512KiB time=00:00:02.26 bitrate=1850.6kbits/s speed=0.0107x elapsed=0:03:32.82    \nframe=  140 fps=0.7 q=31.2 size=     512KiB time=00:00:02.30 bitrate=1823.8kbits/s speed=0.0108x elapsed=0:03:33.37    \nframe=  140 fps=0.7 q=31.2 size=     512KiB time=00:00:02.30 bitrate=1823.8kbits/s speed=0.0108x elapsed=0:03:33.87    \nframe=  140 fps=0.7 q=31.2 size=     512KiB time=00:00:02.30 bitrate=1823.8kbits/s speed=0.0107x elapsed=0:03:34.40    \nframe=  141 fps=0.7 q=24.0 size=     512KiB time=00:00:02.31 bitrate=1810.6kbits/s speed=0.0108x elapsed=0:03:34.94    \nframe=  142 fps=0.7 q=30.3 size=     512KiB time=00:00:02.33 bitrate=1797.7kbits/s speed=0.0108x elapsed=0:03:35.48    \nframe=  142 fps=0.7 q=30.3 size=     512KiB time=00:00:02.33 bitrate=1797.7kbits/s speed=0.0108x elapsed=0:03:36.04    \nframe=  142 fps=0.7 q=30.3 size=     512KiB time=00:00:02.33 bitrate=1797.7kbits/s speed=0.0108x elapsed=0:03:36.63    \nframe=  142 fps=0.7 q=30.3 size=     512KiB time=00:00:02.33 bitrate=1797.7kbits/s speed=0.0107x elapsed=0:03:37.18    \nframe=  143 fps=0.7 q=31.1 size=     512KiB time=00:00:02.35 bitrate=1785.0kbits/s speed=0.0108x elapsed=0:03:37.78    \nframe=  143 fps=0.7 q=31.1 size=     512KiB time=00:00:02.35 bitrate=1785.0kbits/s speed=0.0108x elapsed=0:03:38.34    \nframe=  143 fps=0.7 q=31.1 size=     512KiB time=00:00:02.35 bitrate=1785.0kbits/s speed=0.0107x elapsed=0:03:38.88    \nframe=  143 fps=0.7 q=31.1 size=     512KiB time=00:00:02.35 bitrate=1785.0kbits/s speed=0.0107x elapsed=0:03:39.40    \nframe=  144 fps=0.7 q=31.3 size=     512KiB time=00:00:02.36 bitrate=1772.4kbits/s speed=0.0108x elapsed=0:03:39.93    \nframe=  144 fps=0.7 q=31.3 size=     512KiB time=00:00:02.36 bitrate=1772.4kbits/s speed=0.0107x elapsed=0:03:40.45    \nframe=  144 fps=0.7 q=31.3 size=     512KiB time=00:00:02.36 bitrate=1772.4kbits/s speed=0.0107x elapsed=0:03:40.98    \nframe=  144 fps=0.7 q=31.3 size=     512KiB time=00:00:02.36 bitrate=1772.4kbits/s speed=0.0107x elapsed=0:03:41.52    \nframe=  145 fps=0.7 q=31.2 size=     512KiB time=00:00:02.38 bitrate=1760.0kbits/s speed=0.0107x elapsed=0:03:42.09    \nframe=  145 fps=0.7 q=31.2 size=     512KiB time=00:00:02.38 bitrate=1760.0kbits/s speed=0.0107x elapsed=0:03:42.64    \nframe=  145 fps=0.6 q=31.2 size=     512KiB time=00:00:02.38 bitrate=1760.0kbits/s speed=0.0107x elapsed=0:03:43.22    \nframe=  146 fps=0.7 q=24.0 size=     512KiB time=00:00:02.40 bitrate=1747.8kbits/s speed=0.0107x elapsed=0:03:43.78    \nframe=  147 fps=0.7 q=30.0 size=     512KiB time=00:00:02.41 bitrate=1735.7kbits/s speed=0.0108x elapsed=0:03:44.30    \nframe=  147 fps=0.7 q=30.0 size=     512KiB time=00:00:02.41 bitrate=1735.7kbits/s speed=0.0107x elapsed=0:03:44.83    \nframe=  148 fps=0.7 q=30.4 size=     512KiB time=00:00:02.43 bitrate=1723.8kbits/s speed=0.0108x elapsed=0:03:45.40    \nframe=  148 fps=0.7 q=30.4 size=     512KiB time=00:00:02.43 bitrate=1723.8kbits/s speed=0.0108x elapsed=0:03:45.97    \nframe=  148 fps=0.7 q=30.4 size=     512KiB time=00:00:02.43 bitrate=1723.8kbits/s speed=0.0107x elapsed=0:03:46.53    \nframe=  148 fps=0.7 q=30.4 size=     512KiB time=00:00:02.43 bitrate=1723.8kbits/s speed=0.0107x elapsed=0:03:47.12    \nframe=  149 fps=0.7 q=31.2 size=     512KiB time=00:00:02.45 bitrate=1712.1kbits/s speed=0.0108x elapsed=0:03:47.64    \nframe=  149 fps=0.7 q=31.2 size=     512KiB time=00:00:02.45 bitrate=1712.1kbits/s speed=0.0107x elapsed=0:03:48.16    \nframe=  150 fps=0.7 q=31.2 size=     512KiB time=00:00:02.46 bitrate=1700.5kbits/s speed=0.0108x elapsed=0:03:48.69    \nframe=  150 fps=0.7 q=31.2 size=     512KiB time=00:00:02.46 bitrate=1700.5kbits/s speed=0.0108x elapsed=0:03:49.26    \nframe=  151 fps=0.7 q=23.9 size=     512KiB time=00:00:02.48 bitrate=1689.1kbits/s speed=0.0108x elapsed=0:03:49.80    \nframe=  153 fps=0.7 q=31.2 size=     512KiB time=00:00:02.51 bitrate=1666.8kbits/s speed=0.0109x elapsed=0:03:50.31    \nframe=  153 fps=0.7 q=31.2 size=     512KiB time=00:00:02.51 bitrate=1666.8kbits/s speed=0.0109x elapsed=0:03:50.83    \nframe=  153 fps=0.7 q=31.2 size=     512KiB time=00:00:02.51 bitrate=1666.8kbits/s speed=0.0109x elapsed=0:03:51.36    \nframe=  154 fps=0.7 q=31.1 size=     768KiB time=00:00:02.53 bitrate=2483.6kbits/s speed=0.0109x elapsed=0:03:51.91    \nframe=  155 fps=0.7 q=31.1 size=     768KiB time=00:00:02.55 bitrate=2467.4kbits/s speed=0.011x elapsed=0:03:52.41    \nframe=  156 fps=0.7 q=22.8 size=     768KiB time=00:00:02.56 bitrate=2451.4kbits/s speed=0.011x elapsed=0:03:52.93    \nframe=  156 fps=0.7 q=22.8 size=     768KiB time=00:00:02.56 bitrate=2451.4kbits/s speed=0.011x elapsed=0:03:53.45    \nframe=  157 fps=0.7 q=30.2 size=     768KiB time=00:00:02.58 bitrate=2435.5kbits/s speed=0.011x elapsed=0:03:53.98    \nframe=  158 fps=0.7 q=30.2 size=     768KiB time=00:00:02.60 bitrate=2419.9kbits/s speed=0.0111x elapsed=0:03:54.50    \nframe=  159 fps=0.7 q=30.5 size=     768KiB time=00:00:02.61 bitrate=2404.5kbits/s speed=0.0111x elapsed=0:03:55.02    \nframe=  159 fps=0.7 q=30.5 size=     768KiB time=00:00:02.61 bitrate=2404.5kbits/s speed=0.0111x elapsed=0:03:55.54    \nframe=  160 fps=0.7 q=30.0 size=     768KiB time=00:00:02.63 bitrate=2389.3kbits/s speed=0.0112x elapsed=0:03:56.07    \nframe=  160 fps=0.7 q=30.0 size=     768KiB time=00:00:02.63 bitrate=2389.3kbits/s speed=0.0111x elapsed=0:03:56.61    \nframe=  162 fps=0.7 q=29.4 size=     768KiB time=00:00:02.66 bitrate=2359.4kbits/s speed=0.0112x elapsed=0:03:57.13    \nframe=  163 fps=0.7 q=30.2 size=     768KiB time=00:00:02.68 bitrate=2344.8kbits/s speed=0.0113x elapsed=0:03:57.65    \nframe=  163 fps=0.7 q=30.2 size=     768KiB time=00:00:02.68 bitrate=2344.8kbits/s speed=0.0113x elapsed=0:03:58.17    \nframe=  164 fps=0.7 q=30.3 size=     768KiB time=00:00:02.70 bitrate=2330.3kbits/s speed=0.0113x elapsed=0:03:58.72    \nframe=  165 fps=0.7 q=30.1 size=     768KiB time=00:00:02.71 bitrate=2316.0kbits/s speed=0.0114x elapsed=0:03:59.23    \nframe=  166 fps=0.7 q=23.1 size=     768KiB time=00:00:02.73 bitrate=2301.9kbits/s speed=0.0114x elapsed=0:03:59.75    \nframe=  166 fps=0.7 q=23.1 size=     768KiB time=00:00:02.73 bitrate=2301.9kbits/s speed=0.0114x elapsed=0:04:00.27    \nframe=  166 fps=0.7 q=23.1 size=     768KiB time=00:00:02.73 bitrate=2301.9kbits/s speed=0.0114x elapsed=0:04:00.80    \nframe=  167 fps=0.7 q=29.3 size=     768KiB time=00:00:02.75 bitrate=2287.9kbits/s speed=0.0114x elapsed=0:04:01.32    \nframe=  169 fps=0.7 q=30.1 size=     768KiB time=00:00:02.78 bitrate=2260.5kbits/s speed=0.0115x elapsed=0:04:01.85    \nframe=  169 fps=0.7 q=30.1 size=     768KiB time=00:00:02.78 bitrate=2260.5kbits/s speed=0.0115x elapsed=0:04:02.39    \nframe=  169 fps=0.7 q=30.1 size=     768KiB time=00:00:02.78 bitrate=2260.5kbits/s speed=0.0115x elapsed=0:04:02.93    \nframe=  171 fps=0.7 q=22.8 size=     768KiB time=00:00:02.81 bitrate=2233.8kbits/s speed=0.0116x elapsed=0:04:03.45    \nframe=  172 fps=0.7 q=28.9 size=     768KiB time=00:00:02.83 bitrate=2220.6kbits/s speed=0.0116x elapsed=0:04:03.98    \nframe=  172 fps=0.7 q=28.9 size=     768KiB time=00:00:02.83 bitrate=2220.6kbits/s speed=0.0116x elapsed=0:04:04.53    \nframe=  173 fps=0.7 q=29.5 size=     768KiB time=00:00:02.85 bitrate=2207.7kbits/s speed=0.0116x elapsed=0:04:05.08    \nframe=  173 fps=0.7 q=29.5 size=     768KiB time=00:00:02.85 bitrate=2207.7kbits/s speed=0.0116x elapsed=0:04:05.60    \nframe=  174 fps=0.7 q=30.0 size=     768KiB time=00:00:02.86 bitrate=2194.8kbits/s speed=0.0116x elapsed=0:04:06.12    \nframe=  174 fps=0.7 q=30.0 size=     768KiB time=00:00:02.86 bitrate=2194.8kbits/s speed=0.0116x elapsed=0:04:06.64    \nframe=  174 fps=0.7 q=30.0 size=     768KiB time=00:00:02.86 bitrate=2194.8kbits/s speed=0.0116x elapsed=0:04:07.18    \nframe=  176 fps=0.7 q=22.6 size=     768KiB time=00:00:02.90 bitrate=2169.6kbits/s speed=0.0117x elapsed=0:04:07.71    \nframe=  177 fps=0.7 q=29.0 size=     768KiB time=00:00:02.91 bitrate=2157.2kbits/s speed=0.0118x elapsed=0:04:08.22    \nframe=  177 fps=0.7 q=29.0 size=     768KiB time=00:00:02.91 bitrate=2157.2kbits/s speed=0.0117x elapsed=0:04:08.73    \nframe=  178 fps=0.7 q=30.0 size=     768KiB time=00:00:02.93 bitrate=2144.9kbits/s speed=0.0118x elapsed=0:04:09.27    \nframe=  179 fps=0.7 q=29.3 size=     768KiB time=00:00:02.95 bitrate=2132.8kbits/s speed=0.0118x elapsed=0:04:09.79    \nframe=  179 fps=0.7 q=29.3 size=     768KiB time=00:00:02.95 bitrate=2132.8kbits/s speed=0.0118x elapsed=0:04:10.32    \nframe=  180 fps=0.7 q=29.4 size=     768KiB time=00:00:02.96 bitrate=2120.8kbits/s speed=0.0118x elapsed=0:04:10.86    \nframe=  180 fps=0.7 q=29.4 size=     768KiB time=00:00:02.96 bitrate=2120.8kbits/s speed=0.0118x elapsed=0:04:11.37    \nframe=  182 fps=0.7 q=28.7 size=     768KiB time=00:00:03.00 bitrate=2097.3kbits/s speed=0.0119x elapsed=0:04:11.90    \nframe=  182 fps=0.7 q=28.7 size=     768KiB time=00:00:03.00 bitrate=2097.3kbits/s speed=0.0119x elapsed=0:04:12.41    \nframe=  183 fps=0.7 q=29.3 size=     768KiB time=00:00:03.01 bitrate=2085.7kbits/s speed=0.0119x elapsed=0:04:12.96    \nframe=  184 fps=0.7 q=29.9 size=     768KiB time=00:00:03.03 bitrate=2074.2kbits/s speed=0.012x elapsed=0:04:13.51    \nframe=  185 fps=0.7 q=30.1 size=     768KiB time=00:00:03.05 bitrate=2062.9kbits/s speed=0.012x elapsed=0:04:14.03    \nframe=  185 fps=0.7 q=30.1 size=     768KiB time=00:00:03.05 bitrate=2062.9kbits/s speed=0.012x elapsed=0:04:14.55    \nframe=  185 fps=0.7 q=30.1 size=     768KiB time=00:00:03.05 bitrate=2062.9kbits/s speed=0.012x elapsed=0:04:15.08    \nframe=  186 fps=0.7 q=23.2 size=     768KiB time=00:00:03.06 bitrate=2051.7kbits/s speed=0.012x elapsed=0:04:15.59    \nframe=  187 fps=0.7 q=29.0 size=     768KiB time=00:00:03.08 bitrate=2040.6kbits/s speed=0.012x elapsed=0:04:16.10    \nframe=  187 fps=0.7 q=29.0 size=     768KiB time=00:00:03.08 bitrate=2040.6kbits/s speed=0.012x elapsed=0:04:16.63    \nframe=  189 fps=0.7 q=30.2 size=     768KiB time=00:00:03.11 bitrate=2018.8kbits/s speed=0.0121x elapsed=0:04:17.18    \nframe=  189 fps=0.7 q=30.2 size=     768KiB time=00:00:03.11 bitrate=2018.8kbits/s speed=0.0121x elapsed=0:04:17.71    \nframe=  189 fps=0.7 q=30.2 size=     768KiB time=00:00:03.11 bitrate=2018.8kbits/s speed=0.0121x elapsed=0:04:18.24    \nframe=  191 fps=0.7 q=25.0 size=     768KiB time=00:00:03.15 bitrate=1997.4kbits/s speed=0.0122x elapsed=0:04:18.75    \nframe=  192 fps=0.7 q=30.1 size=     768KiB time=00:00:03.16 bitrate=1986.9kbits/s speed=0.0122x elapsed=0:04:19.27    \nframe=  193 fps=0.7 q=31.1 size=     768KiB time=00:00:03.18 bitrate=1976.5kbits/s speed=0.0123x elapsed=0:04:19.78    \nframe=  194 fps=0.7 q=31.2 size=     768KiB time=00:00:03.20 bitrate=1966.2kbits/s speed=0.0123x elapsed=0:04:20.30    \nframe=  195 fps=0.7 q=31.4 size=     768KiB time=00:00:03.21 bitrate=1956.0kbits/s speed=0.0123x elapsed=0:04:20.81    \nframe=  197 fps=0.8 q=29.7 size=     768KiB time=00:00:03.25 bitrate=1935.9kbits/s speed=0.0124x elapsed=0:04:21.33    \nframe=  198 fps=0.8 q=31.3 size=     768KiB time=00:00:03.26 bitrate=1926.1kbits/s speed=0.0125x elapsed=0:04:21.85    \nframe=  201 fps=0.8 q=29.3 size=     768KiB time=00:00:03.31 bitrate=1897.0kbits/s speed=0.0126x elapsed=0:04:22.35    \nframe=  202 fps=0.8 q=31.1 size=     768KiB time=00:00:03.33 bitrate=1887.5kbits/s speed=0.0127x elapsed=0:04:22.87    \nframe=  204 fps=0.8 q=31.2 size=     768KiB time=00:00:03.36 bitrate=1868.9kbits/s speed=0.0128x elapsed=0:04:23.39    \nframe=  206 fps=0.8 q=29.0 size=    1024KiB time=00:00:03.40 bitrate=2467.3kbits/s speed=0.0129x elapsed=0:04:23.90    \nframe=  208 fps=0.8 q=31.2 size=    1024KiB time=00:00:03.43 bitrate=2443.4kbits/s speed=0.013x elapsed=0:04:24.42    \nframe=  210 fps=0.8 q=24.5 size=    1024KiB time=00:00:03.46 bitrate=2419.9kbits/s speed=0.0131x elapsed=0:04:24.94    \nframe=  212 fps=0.8 q=31.3 size=    1024KiB time=00:00:03.50 bitrate=2396.8kbits/s speed=0.0132x elapsed=0:04:25.45    \nframe=  214 fps=0.8 q=31.1 size=    1024KiB time=00:00:03.53 bitrate=2374.2kbits/s speed=0.0133x elapsed=0:04:25.97    \nframe=  216 fps=0.8 q=29.1 size=    1024KiB time=00:00:03.56 bitrate=2352.0kbits/s speed=0.0134x elapsed=0:04:26.48    \nframe=  218 fps=0.8 q=31.2 size=    1024KiB time=00:00:03.60 bitrate=2330.3kbits/s speed=0.0135x elapsed=0:04:27.00    \nframe=  219 fps=0.8 q=31.2 size=    1024KiB time=00:00:03.61 bitrate=2319.5kbits/s speed=0.0135x elapsed=0:04:27.52    \nframe=  221 fps=0.8 q=30.3 size=    1024KiB time=00:00:03.65 bitrate=2298.3kbits/s speed=0.0136x elapsed=0:04:28.02    \nframe=  224 fps=0.8 q=31.3 size=    1024KiB time=00:00:03.70 bitrate=2267.3kbits/s speed=0.0138x elapsed=0:04:28.55    \nframe=  226 fps=0.8 q=30.3 size=    1024KiB time=00:00:03.73 bitrate=2247.0kbits/s speed=0.0139x elapsed=0:04:29.07    \nframe=  228 fps=0.8 q=31.0 size=    1024KiB time=00:00:03.76 bitrate=2227.2kbits/s speed=0.014x elapsed=0:04:29.57    \nframe=  231 fps=0.9 q=31.1 size=    1024KiB time=00:00:03.81 bitrate=2198.0kbits/s speed=0.0141x elapsed=0:04:30.09    \nframe=  233 fps=0.9 q=32.2 size=    1024KiB time=00:00:03.85 bitrate=2179.0kbits/s speed=0.0142x elapsed=0:04:30.61    \nframe=  234 fps=0.9 q=32.3 size=    1024KiB time=00:00:03.86 bitrate=2169.6kbits/s speed=0.0143x elapsed=0:04:31.12    \nframe=  236 fps=0.9 q=30.7 size=    1024KiB time=00:00:03.90 bitrate=2151.0kbits/s speed=0.0144x elapsed=0:04:31.64    \nframe=  239 fps=0.9 q=31.2 size=    1024KiB time=00:00:03.95 bitrate=2123.8kbits/s speed=0.0145x elapsed=0:04:32.16    \nframe=  241 fps=0.9 q=32.3 size=    1024KiB time=00:00:03.98 bitrate=2106.0kbits/s speed=0.0146x elapsed=0:04:32.66    \nframe=  242 fps=0.9 q=32.3 size=    1024KiB time=00:00:04.00 bitrate=2097.2kbits/s speed=0.0146x elapsed=0:04:33.19    \nframe=  244 fps=0.9 q=31.1 size=    1024KiB time=00:00:04.03 bitrate=2079.9kbits/s speed=0.0147x elapsed=0:04:33.71    \nframe=  246 fps=0.9 q=32.2 size=    1024KiB time=00:00:04.06 bitrate=2062.9kbits/s speed=0.0148x elapsed=0:04:34.21    \nframe=  247 fps=0.9 q=32.2 size=    1024KiB time=00:00:04.08 bitrate=2054.4kbits/s speed=0.0149x elapsed=0:04:34.73    \nframe=  248 fps=0.9 q=22.2 size=    1024KiB time=00:00:04.10 bitrate=2046.1kbits/s speed=0.0149x elapsed=0:04:35.25    \nframe=  251 fps=0.9 q=32.3 size=    1280KiB time=00:00:04.15 bitrate=2526.8kbits/s speed=0.015x elapsed=0:04:35.77    \nframe=  254 fps=0.9 q=32.4 size=    1280KiB time=00:00:04.20 bitrate=2496.7kbits/s speed=0.0152x elapsed=0:04:36.28    \nframe=  255 fps=0.9 q=32.4 size=    1280KiB time=00:00:04.21 bitrate=2486.8kbits/s speed=0.0152x elapsed=0:04:36.80    \nframe=  258 fps=0.9 q=30.7 size=    1280KiB time=00:00:04.26 bitrate=2457.7kbits/s speed=0.0154x elapsed=0:04:37.31    \nframe=  260 fps=0.9 q=32.4 size=    1280KiB time=00:00:04.30 bitrate=2438.6kbits/s speed=0.0155x elapsed=0:04:37.82    \nframe=  263 fps=0.9 q=30.7 size=    1280KiB time=00:00:04.35 bitrate=2410.6kbits/s speed=0.0156x elapsed=0:04:38.35    \nframe=  265 fps=1.0 q=32.4 size=    1280KiB time=00:00:04.38 bitrate=2392.3kbits/s speed=0.0157x elapsed=0:04:38.86    \nframe=  268 fps=1.0 q=30.5 size=    1280KiB time=00:00:04.43 bitrate=2365.3kbits/s speed=0.0159x elapsed=0:04:39.38    \nframe=  270 fps=1.0 q=32.4 size=    1280KiB time=00:00:04.46 bitrate=2347.6kbits/s speed=0.016x elapsed=0:04:39.89    \nframe=  273 fps=1.0 q=31.2 size=    1280KiB time=00:00:04.51 bitrate=2321.6kbits/s speed=0.0161x elapsed=0:04:40.40    \nframe=  276 fps=1.0 q=32.5 size=    1280KiB time=00:00:04.56 bitrate=2296.2kbits/s speed=0.0163x elapsed=0:04:40.92    \nframe=  278 fps=1.0 q=31.4 size=    1280KiB time=00:00:04.60 bitrate=2279.6kbits/s speed=0.0163x elapsed=0:04:41.43    \nframe=  281 fps=1.0 q=32.5 size=    1280KiB time=00:00:04.65 bitrate=2255.1kbits/s speed=0.0165x elapsed=0:04:41.95    \nframe=  284 fps=1.0 q=32.5 size=    1280KiB time=00:00:04.70 bitrate=2231.1kbits/s speed=0.0166x elapsed=0:04:42.47    \nframe=  287 fps=1.0 q=27.8 size=    1280KiB time=00:00:04.75 bitrate=2207.6kbits/s speed=0.0168x elapsed=0:04:42.99    \nframe=  290 fps=1.0 q=32.4 size=    1280KiB time=00:00:04.80 bitrate=2184.6kbits/s speed=0.0169x elapsed=0:04:43.49    \nframe=  292 fps=1.0 q=29.0 size=    1280KiB time=00:00:04.83 bitrate=2169.5kbits/s speed=0.017x elapsed=0:04:44.02    \nframe=  295 fps=1.0 q=32.4 size=    1280KiB time=00:00:04.88 bitrate=2147.3kbits/s speed=0.0172x elapsed=0:04:44.52    \nframe=  298 fps=1.0 q=30.8 size=    1280KiB time=00:00:04.93 bitrate=2125.6kbits/s speed=0.0173x elapsed=0:04:45.04    \n[mp4 @ 00000272a958ab40] Starting second pass: moving the moov atom to the beginning of the file\n[out#0/mp4 @ 00000272a958aa40] video:1516KiB audio:0KiB subtitle:0KiB other streams:0KiB global headers:2KiB muxing overhead: 0.443862%\nframe=  300 fps=1.1 q=32.4 Lsize=    1523KiB time=00:00:04.96 bitrate=2511.4kbits/s speed=0.0174x elapsed=0:04:45.21    \nx265 [info]: frame I:      2, Avg QP:28.70  kb/s: 25955.52\nx265 [info]: frame P:     62, Avg QP:25.56  kb/s: 5833.78 \nx265 [info]: frame B:    236, Avg QP:31.76  kb/s: 1402.19 \nx265 [info]: Weighted P-Frames: Y:0.0% UV:0.0%\n\nencoded 300 frames in 284.78s (1.05 fps), 2481.74 kb/s, Avg QP:30.46\n",
  "seconds": 285.5521631240845,
  "probe_out": {}
}